<svg width="30" height="30" viewBox="0 0 30 30" fill="none" xmlns="http://www.w3.org/2000/svg">
<path d="M26.4702 12.7088H25.5279V12.6603H15V17.3393H21.611C20.6465 20.0631 18.0549 22.0184 15 22.0184C11.124 22.0184 7.98143 18.8758 7.98143 14.9998C7.98143 11.1238 11.124 7.98119 15 7.98119C16.7892 7.98119 18.4169 8.65614 19.6563 9.75865L22.965 6.44997C20.8758 4.50289 18.0812 3.30212 15 3.30212C8.54 3.30212 3.30237 8.53975 3.30237 14.9998C3.30237 21.4598 8.54 26.6975 15 26.6975C21.4601 26.6975 26.6977 21.4598 26.6977 14.9998C26.6977 14.2155 26.617 13.4498 26.4702 12.7088Z" fill="#FFC107"/>
<path d="M4.65039 9.55511L8.49366 12.3737C9.53358 9.79901 12.0521 7.98119 14.9993 7.98119C16.7885 7.98119 18.4162 8.65614 19.6556 9.75865L22.9643 6.44996C20.8751 4.50289 18.0805 3.30212 14.9993 3.30212C10.5062 3.30212 6.60975 5.83876 4.65039 9.55511Z" fill="#FF3D00"/>
<path d="M15.0001 26.6979C18.0217 26.6979 20.7671 25.5416 22.8428 23.6612L19.2224 20.5976C18.0085 21.5207 16.5252 22.02 15.0001 22.0188C11.9576 22.0188 9.37416 20.0788 8.40091 17.3713L4.5863 20.3104C6.52227 24.0987 10.4539 26.6979 15.0001 26.6979Z" fill="#4CAF50"/>
<path d="M26.4701 12.7088H25.5279V12.6603H15V17.3393H21.6109C21.1496 18.6357 20.3186 19.7685 19.2205 20.5977L19.2223 20.5966L22.8427 23.6602C22.5865 23.893 26.6977 20.8486 26.6977 14.9998C26.6977 14.2155 26.617 13.4499 26.4701 12.7088Z" fill="#0075C2"/>
</svg>
